<svg id="Layer_1" data-name="Layer 1" xmlns="http://www.w3.org/2000/svg" viewBox="0 0 838.3 243.74"><defs><style>.cls-1{fill:#009cde;}.cls-2{fill:#87af45;}</style></defs><path class="cls-1" d="M486.47,54.87q11.14,0,17.26,8.25t6.11,20.71A71.75,71.75,0,0,1,495,128.1q-14.83,19.71-34.61,19.71-13.12,0-19.95-11.55l-15.1,59A53.19,53.19,0,0,1,414,197.12a6.79,6.79,0,0,1-4-.91c-.77-.62-1-1.65-.62-3.12l11.86-44.36,13.66-51.15L444.94,58.9a31.6,31.6,0,0,1,10.25-2,5.73,5.73,0,0,1,3.23.74,2.13,2.13,0,0,1,.9,2.2q-1.44,6.6-5,18.51Q468.86,54.87,486.47,54.87Zm-25,82.31q12.58,0,21.75-16.5a69.26,69.26,0,0,0,9.17-34.1q0-9.35-3.59-14.94t-9.35-5.59q-7.54,0-15.1,8.52a94,94,0,0,0-13.84,21.54l-6.3,24.94Q448.72,137.18,461.48,137.18Z"/><path class="cls-2" d="M34.62,64.12Q28.74,83,21,110.47q-4.17,11.77-3,18.73t9.85,7q6.24,0,14.39-4.44c2.15,3,3.25,5.15,3.32,6.56s-.8,2.77-2.56,4.06q-8,5.59-20.64,5.6-10.62,0-15.63-4.73T1.85,130.07a95.33,95.33,0,0,1,3-20Q8.48,96,17.76,64.5,7.15,64.89,6,64.89c-1.26,0-1.9-.71-1.9-2.13q0-3.07,3.6-9.46H20.79l7.76-28.39a43.16,43.16,0,0,1,11.37-2.12q5.49,0,4.54,3.09-.95,4.05-7.19,27.23c1.39,0,3.37-.07,6-.19s4.86-.23,6.82-.3,3.51-.09,4.64-.09,1.89.9,1.89,2.7q0,3.68-3.21,8.5Q46.35,63.73,34.62,64.12Z"/><path class="cls-2" d="M131.85,59c1.23,1.38,1.29,3.18.18,5.38s-3.76,5.37-8,9.52q-3.7-5.28-8.7-5.28-7.22,0-15.07,8.77T81.9,103.28q-1.86,7-4.26,15.28-.93,3.41-7.21,27.36a45.27,45.27,0,0,1-12,2.07,6.49,6.49,0,0,1-4-.94c-.81-.63-1-1.64-.65-3q1.66-7.17,6.2-22.45t5.64-18.87l12-44.33c5.31-1.25,9-1.88,11.1-1.88a6.36,6.36,0,0,1,3.61.75A2.21,2.21,0,0,1,93,59.7q-.37,1.89-1.3,5c-.61,2.08-1.48,5-2.59,8.77S87,80.9,86,84.42Q103.91,54.8,120.56,54.8,128.33,54.8,131.85,59Z"/><path class="cls-2" d="M210.86,59.58q-2,7-17.13,62.31-2.16,7.53-.72,11.58c1,2.7,3,4,6.13,4a24.67,24.67,0,0,0,8.29-2c1.92-.86,2.89,0,2.89,2.57a17.47,17.47,0,0,1-1.81,6.8q-8.1,3.13-13.88,3.13-8.83,0-12.88-6.16T180,124.65Q165.61,148,148.49,148A20.83,20.83,0,0,1,131,139.44q-6.48-8.55-6.49-22.33,0-22.8,14.88-42.55T174.45,54.8Q189,54.8,193.91,69l2.71-10.48a43.93,43.93,0,0,1,9.91-1.83,7.13,7.13,0,0,1,3.79.73A1.69,1.69,0,0,1,210.86,59.58Zm-56.78,76.83q14.23,0,31.36-39l4.51-16q-4-16-15.68-16-9.37,0-17,8.64a56.64,56.64,0,0,0-11.44,20.12A70.53,70.53,0,0,0,142,116.37q0,9.57,3.33,14.8T154.08,136.41Z"/><path class="cls-2" d="M375.28,73q0,14.15-14.51,25.18T319.4,110.86a30.3,30.3,0,0,0-.18,3.86q0,23,16.58,23,11.35,0,23.8-9,5.58,5.7.54,9.56a42,42,0,0,1-13.43,7.07A49.27,49.27,0,0,1,331.12,148q-14.25,0-21.91-8.46t-7.66-24.08a64.26,64.26,0,0,1,6.76-28.39,62.87,62.87,0,0,1,19-23.07A43.51,43.51,0,0,1,354,54.8q10.64,0,15.95,5.05A17.34,17.34,0,0,1,375.28,73Zm-24.7-7.54q-10.63,0-18.65,10.47a63.16,63.16,0,0,0-11.27,25.19q18.57-1.29,29.2-8.73T360.5,75Q360.5,65.47,350.58,65.46Z"/><path class="cls-2" d="M287,54.8q4.11,0,6.81,4.18t2.71,11.22q0,13.69-14,33.67t-38.24,42.41a24,24,0,0,1-8,1.71c-3,0-4.54-1.2-4.66-3.61l-8.39-86.16a36.88,36.88,0,0,1,11.56-2.47q5,0,5.22,3.42l5.23,71.51A202.58,202.58,0,0,0,271.62,98q10.53-16.55,10.54-26.25,0-6.47-6-10.46Q281.41,54.8,287,54.8Z"/><path class="cls-2" d="M411.39,4.12a40.68,40.68,0,0,1,11.12-1.83,7,7,0,0,1,3.77.74A2.29,2.29,0,0,1,427,5.59L413.18,56.1l-18.31,66.26c-1.43,5.24-1.91,9.06-1.43,11.43s2.21,3.57,5.2,3.57a33.24,33.24,0,0,0,9-1.64,1.33,1.33,0,0,1,1.79.27,3.66,3.66,0,0,1,.72,2.47,14.76,14.76,0,0,1-2,7,45.37,45.37,0,0,1-14.36,2.74q-10.59,0-14.18-7.59T379.8,120l18.84-68.64Z"/><path class="cls-1" d="M636.31,94.49l-8,28.18q-1.95,7.89-1,11c.65,2.07,2.47,3.1,5.44,3.1a30.37,30.37,0,0,0,8.73-1.69c1.54-.5,2.32.57,2.32,3.19a18.61,18.61,0,0,1-1.79,7.15A46.06,46.06,0,0,1,627.94,148q-9.81,0-13.72-7t-.72-19.91Q596,148,577.16,148q-21.57,0-14.08-30.44l15.86-60.69a45.25,45.25,0,0,1,11.58-2.07,6.2,6.2,0,0,1,3.65.85A2.08,2.08,0,0,1,595,58l-15.5,57.87q-5.34,19,5.88,19,7.3,0,16.31-9.67a132.11,132.11,0,0,0,17-23.4q.54-2.25,5.26-20.1t6.86-25A52,52,0,0,1,641.84,55a7.32,7.32,0,0,1,3.92.75,2.19,2.19,0,0,1,.71,2.45Z"/><path class="cls-1" d="M682.56,148a48.9,48.9,0,0,1-17.91-3.22c-5.49-2.13-8.77-4.43-9.84-6.87a4.33,4.33,0,0,1,.89-4.5,49.51,49.51,0,0,1,7.7-6.88,25.24,25.24,0,0,0,9.4,7.8,26.93,26.93,0,0,0,12.27,3,16.52,16.52,0,0,0,10.11-3.12,10.16,10.16,0,0,0,4.21-8.63,14.2,14.2,0,0,0-3.31-9.07,67.79,67.79,0,0,0-10.48-9.82,85.73,85.73,0,0,1-13.34-13,20.8,20.8,0,0,1-4.38-13q0-11.19,10.56-18.53a41.64,41.64,0,0,1,24.35-7.34,38.88,38.88,0,0,1,15.31,2.85q6.72,2.84,8.5,5.77,1.26,2.21-1.07,4.68A57.77,57.77,0,0,1,716.76,75q-6.45-9.52-16.66-9.54A18.34,18.34,0,0,0,688.82,69a10.75,10.75,0,0,0-4.65,9A15.38,15.38,0,0,0,688,87.68,94.08,94.08,0,0,0,700.1,99.42q5.55,4.77,8.33,7.52a29,29,0,0,1,5,7,18.94,18.94,0,0,1,2.23,9q0,11-9.4,18.07T682.56,148Z"/><path class="cls-1" d="M548,4a40.3,40.3,0,0,1,11.12-1.83,7,7,0,0,1,3.77.73,2.29,2.29,0,0,1,.72,2.56L549.78,55.93l-18.31,66.25q-2.15,7.88-1.43,11.44c.47,2.38,2.21,3.57,5.2,3.57a33.45,33.45,0,0,0,9-1.65,1.33,1.33,0,0,1,1.79.27,3.69,3.69,0,0,1,.72,2.48,14.66,14.66,0,0,1-2,7A45.31,45.31,0,0,1,530.4,148q-10.59,0-14.18-7.6t.18-20.59l18.84-68.63Z"/><path class="cls-1" d="M781.8,62.19,800.07,1.66,726.66,66.35S771.68,95.69,781.8,62.19Z"/><path class="cls-1" d="M788.62,63.67C782.27,98,836.45,89.56,836.45,89.56L800.09,1.71Z"/><path class="cls-1" d="M235.62,148.45a10.57,10.57,0,0,0,1.77,1.87c1.07.92,1.3,1.06,2,1.56a39.68,39.68,0,0,0,4.33,2.75c2.94,1.73,6,3.32,9,4.86,6.09,3.08,12.29,5.91,18.52,8.63,12.47,5.45,25.17,10.29,37.94,14.86,25.55,9.09,51.51,16.81,77.69,23.27,13.09,3.24,26.22,6.21,39.42,8.78s26.41,4.92,39.67,6.85,26.55,3.49,39.85,4.61,26.64,1.84,40,1.89a391.84,391.84,0,0,0,39.83-1.56,318,318,0,0,0,39.33-5.95,241.6,241.6,0,0,0,38.06-11.47c6.18-2.43,12.25-5.19,18.18-8.23a190.91,190.91,0,0,0,17.38-9.95,184.27,184.27,0,0,0,56.75-58.07c14.89-23.62,24.76-50.76,31.49-78.73-4,28.58-12.37,56.84-26.25,82.24a193.2,193.2,0,0,1-24.81,35.25,182.76,182.76,0,0,1-31.92,28.26,200.91,200.91,0,0,1-17.93,11.2,204,204,0,0,1-18.9,9.14,253.36,253.36,0,0,1-39.53,13,309.26,309.26,0,0,1-40.73,6.78,396.56,396.56,0,0,1-41,1.82c-13.68-.14-27.33-.93-40.92-2.2s-27.1-3.25-40.54-5.56-26.77-5.22-40-8.41S397.75,219,384.7,215q-39.12-12-77-27.84-18.93-7.89-37.4-16.88c-6.15-3-12.26-6.14-18.25-9.51-3-1.69-6-3.43-8.86-5.31-1.45-.94-2.88-1.91-4.26-3a17.13,17.13,0,0,1-2-1.73A4.22,4.22,0,0,1,235.62,148.45Z"/></svg>