<svg xmlns="http://www.w3.org/2000/svg" viewBox="0 0 944.35 272.03"><defs><style>.cls-1{fill:#fff;}</style></defs><g id="Layer_2" data-name="Layer 2"><g id="Layer_1-2" data-name="Layer 1"><path class="cls-1" d="M548.35,60.2q12.61,0,19.53,9.33T574.79,93A81.23,81.23,0,0,1,558,143.07q-16.78,22.29-39.16,22.29-14.84,0-22.58-13.06l-17.08,66.79a60.18,60.18,0,0,1-12.82,2.07c-2.16,0-3.69-.34-4.57-1s-1.12-1.86-.72-3.52l13.43-50.2L490,108.53l11.39-43.77A35.64,35.64,0,0,1,513,62.48a6.62,6.62,0,0,1,3.67.83,2.41,2.41,0,0,1,1,2.49q-1.62,7.47-5.69,21Q528.41,60.2,548.35,60.2Zm-28.27,93.13q14.24,0,24.61-18.67a78.46,78.46,0,0,0,10.37-38.58q0-10.58-4.07-16.9t-10.57-6.33q-8.55,0-17.09,9.65a106.05,106.05,0,0,0-15.66,24.37l-7.12,28.21Q505.64,153.33,520.08,153.33Z"/><path class="cls-1" d="M37.08,70.66q-6.64,21.42-15.43,52.45-4.71,13.32-3.43,21.19t11.14,7.87q7.08,0,16.29-5c2.43,3.36,3.68,5.83,3.75,7.43s-.89,3.14-2.89,4.59q-9,6.33-23.36,6.34-12,0-17.68-5.35T0,145.29a106.69,106.69,0,0,1,3.43-22.62Q7.51,106.73,18,71.1q-12,.44-13.29.44c-1.43,0-2.14-.8-2.14-2.41q0-3.5,4.07-10.7H21.44l8.78-32.12q8.14-2.41,12.86-2.41c4.14,0,5.86,1.17,5.14,3.5Q47.16,32,40.08,58.21q2.36,0,6.75-.22t7.71-.33c2.22-.07,4-.11,5.25-.11s2.15,1,2.15,3.06q0,4.16-3.64,9.62Q50.36,70.23,37.08,70.66Z"/><path class="cls-1" d="M147.1,64.82q2.09,2.34.21,6.08t-9,10.78c-2.8-4-6.07-6-9.84-6q-8.18,0-17.06,9.93T90.58,115q-2.1,7.89-4.81,17.29-1,3.84-8.17,30.95A51.32,51.32,0,0,1,64,165.57a7.4,7.4,0,0,1-4.5-1.07c-.9-.71-1.15-1.85-.73-3.42q1.89-8.1,7-25.4t6.38-21.34L85.77,64.18q9-2.13,12.55-2.14a7.16,7.16,0,0,1,4.09.86,2.5,2.5,0,0,1,.73,2.77q-.42,2.13-1.47,5.66t-2.93,9.92q-1.87,6.41-3.56,12.38,20.31-33.51,39.15-33.51Q143.12,60.12,147.1,64.82Z"/><path class="cls-1" d="M236.5,65.53q-2.25,7.91-19.38,70.5-2.44,8.53-.82,13.11t6.94,4.57c2.31,0,5.43-.76,9.38-2.29,2.17-1,3.26,0,3.26,2.92a19.75,19.75,0,0,1-2,7.69q-9.18,3.54-15.7,3.54-10,0-14.58-7t-1.94-19.45q-16.32,26.41-35.69,26.42-12.45,0-19.79-9.67t-7.34-25.28q0-25.78,16.83-48.14T195.3,60.12q16.51,0,22,16l3.06-11.85q7.76-2.09,11.22-2.08a8,8,0,0,1,4.28.83A1.92,1.92,0,0,1,236.5,65.53Zm-64.25,86.93q16.11,0,35.49-44.09l5.1-18.09q-4.49-18.11-17.75-18.1-10.6,0-19.27,9.78a64.12,64.12,0,0,0-12.95,22.77,79.86,79.86,0,0,0-4.29,25.06c0,7.22,1.26,12.79,3.78,16.75S168.17,152.46,172.25,152.46Z"/><path class="cls-1" d="M422.54,80.71q0,16-16.42,28.49t-46.81,14.35a33.83,33.83,0,0,0-.2,4.37q0,26,18.76,26,12.86,0,26.92-10.19,6.33,6.45.61,10.81a47.39,47.39,0,0,1-15.19,8,55.81,55.81,0,0,1-17.64,3q-16.12,0-24.78-9.57t-8.67-27.25a72.62,72.62,0,0,1,7.65-32.13,71,71,0,0,1,21.51-26.1q13.88-10.39,30.19-10.4,12,0,18,5.72T422.54,80.71ZM394.6,72.18q-12,0-21.11,11.86t-12.75,28.49q21-1.45,33-9.88t12-19.65Q405.81,72.19,394.6,72.18Z"/><path class="cls-1" d="M322.66,60.12q4.63,0,7.7,4.73t3.06,12.7q0,15.49-15.83,38.09t-43.26,48a27.13,27.13,0,0,1-9.08,1.94c-3.37,0-5.13-1.37-5.27-4.09L250.48,64q8-2.79,13.09-2.79,5.69,0,5.91,3.87L275.39,146a229.07,229.07,0,0,0,29.86-37q11.91-18.72,11.92-29.7,0-7.3-6.75-11.84Q316.32,60.13,322.66,60.12Z"/><path class="cls-1" d="M463.39,2.78A46.14,46.14,0,0,1,476,.71a8,8,0,0,1,4.27.83c.81.55,1.08,1.52.81,2.9L465.42,61.6l-20.71,75q-2.44,8.91-1.63,12.94c.54,2.7,2.51,4,5.89,4a37.83,37.83,0,0,0,10.16-1.86,1.52,1.52,0,0,1,2,.31,4.16,4.16,0,0,1,.81,2.8,16.59,16.59,0,0,1-2.23,7.86,51,51,0,0,1-16.25,3.11q-12,0-16-8.59t.2-23.3L449,56.21Z"/><path class="cls-1" d="M717.89,105l-9.07,31.89q-2.22,8.93-1.11,12.43t6.15,3.51a34.23,34.23,0,0,0,9.88-1.91q2.63-.84,2.62,3.61a21,21,0,0,1-2,8.08,51.94,51.94,0,0,1-15.93,3q-11.08,0-15.53-7.87t-.8-22.53q-19.77,30.41-41.13,30.4-24.4,0-15.93-34.44l18-68.67a51.19,51.19,0,0,1,13.1-2.34,7,7,0,0,1,4.13,1,2.34,2.34,0,0,1,.91,2.66l-17.54,65.47q-6,21.48,6.65,21.48,8.26,0,18.45-11a149.41,149.41,0,0,0,19.26-26.47q.6-2.55,5.94-22.75t7.76-28.27a58.25,58.25,0,0,1,12.5-1.92c2.15,0,3.63.29,4.44.86a2.44,2.44,0,0,1,.81,2.76Z"/><path class="cls-1" d="M770.22,165.62A55.35,55.35,0,0,1,750,162q-9.32-3.63-11.14-7.79-1-2.49,1-5.08t8.71-7.79a28.47,28.47,0,0,0,10.64,8.82,30.39,30.39,0,0,0,13.88,3.43,18.62,18.62,0,0,0,11.44-3.53,11.45,11.45,0,0,0,4.76-9.76A16,16,0,0,0,785.52,130a77.16,77.16,0,0,0-11.85-11.1q-10.14-8.31-15.1-14.74a23.46,23.46,0,0,1-5-14.74q0-12.66,11.95-21a47.13,47.13,0,0,1,27.55-8.3,44,44,0,0,1,17.33,3.22q7.59,3.23,9.62,6.54c.94,1.66.54,3.42-1.22,5.29A64.89,64.89,0,0,1,808.92,83q-7.3-10.78-18.84-10.79a20.7,20.7,0,0,0-12.77,4,12.15,12.15,0,0,0-5.26,10.17q0,5.6,4.35,11a105.51,105.51,0,0,0,13.68,13.28q6.27,5.4,9.42,8.51a32.65,32.65,0,0,1,5.67,7.89,21.35,21.35,0,0,1,2.53,10.17q0,12.45-10.64,20.45T770.22,165.62Z"/><path class="cls-1" d="M618,2.58A45.75,45.75,0,0,1,630.54.51a8,8,0,0,1,4.27.83c.81.55,1.08,1.52.81,2.9L620,61.4l-20.71,75q-2.44,8.91-1.63,12.94c.54,2.7,2.51,4,5.89,4a37.83,37.83,0,0,0,10.16-1.86,1.51,1.51,0,0,1,2,.31,4.16,4.16,0,0,1,.81,2.8,16.59,16.59,0,0,1-2.23,7.86,51,51,0,0,1-16.25,3.11q-12,0-16-8.59t.2-23.3L603.53,56Z"/><path class="cls-1" d="M882.51,68.48,903.19,0,820.12,73.19S871.06,106.39,882.51,68.48Z"/><path class="cls-1" d="M890.23,70.15C883,109,944.35,99.46,944.35,99.46L903.21.05Z"/><path class="cls-1" d="M264.51,166.09a11.93,11.93,0,0,0,2,2.11c1.21,1,1.47,1.21,2.2,1.77a44.29,44.29,0,0,0,4.9,3.1c3.33,2,6.75,3.77,10.19,5.51,6.89,3.48,13.9,6.68,20.95,9.76,14.11,6.17,28.48,11.64,42.93,16.82a917.49,917.49,0,0,0,87.91,26.32c14.8,3.68,29.67,7,44.6,9.94s29.88,5.57,44.88,7.75,30,4,45.1,5.22,30.14,2.08,45.2,2.14a442.73,442.73,0,0,0,45.07-1.77A358.3,358.3,0,0,0,704.94,248a275.19,275.19,0,0,0,43.08-13q10.49-4.14,20.56-9.32a215.53,215.53,0,0,0,19.67-11.26,208.59,208.59,0,0,0,64.21-65.71c16.85-26.72,28-57.43,35.64-89.07-4.54,32.33-14,64.31-29.71,93.05a218.18,218.18,0,0,1-28.08,39.88,206.51,206.51,0,0,1-36.11,32,227.3,227.3,0,0,1-20.28,12.68,231.06,231.06,0,0,1-21.39,10.34,288.06,288.06,0,0,1-44.73,14.67A351.54,351.54,0,0,1,661.72,270,448,448,0,0,1,615.28,272c-15.48-.16-30.92-1.06-46.3-2.49s-30.66-3.68-45.87-6.29-30.29-5.91-45.29-9.52-29.86-7.8-44.62-12.3q-44.26-13.59-87.12-31.5-21.4-8.92-42.32-19.1c-6.95-3.41-13.86-6.95-20.64-10.76-3.39-1.91-6.75-3.88-10-6-1.64-1.06-3.26-2.16-4.82-3.37a20.78,20.78,0,0,1-2.25-2A4.8,4.8,0,0,1,264.51,166.09Z"/></g></g></svg>