<svg xmlns="http://www.w3.org/2000/svg" version="1.1" xmlns:xlink="http://www.w3.org/1999/xlink" width="512" height="512" x="0" y="0" viewBox="0 0 480 480" style="enable-background:new 0 0 512 512" xml:space="preserve"><g><g data-name="Layer 2"><g data-name="United Kingdom"><path fill="#FFFFFF" d="M480 240c0 132.51-107.39 239.94-239.89 240h-2.59a242.26 242.26 0 0 1-34.74-2.87 236 236 0 0 1-27.9-6.06A240.08 240.08 0 0 1 0 240C0 107.47 107.42 0 240 0h.11a239.26 239.26 0 0 1 174.34 75.17A239.79 239.79 0 0 1 480 240z" opacity="1" data-original="#ffffff"></path><path fill="#C8102E" d="M179.43 168.62v10.8h-34.89l-98-81.49a239 239 0 0 1 19.7-23.48zM433.77 98.37l-97.43 81h-35.77v-10.02l113.58-94.49.3.31A236.65 236.65 0 0 1 432.79 97zM179.43 300.56v10.8L66.24 405.55c-1-1-2-2.08-2.94-3.13a238.48 238.48 0 0 1-16.75-20.35l98-81.51zM433.78 381.62a240 240 0 0 1-19.62 23.51l-113.59-94.5v-10.07h35.77z" opacity="1" data-original="#c8102e"></path><g fill="#012169"><path d="M95.85 179.42H7.71a237.85 237.85 0 0 1 22-55.07zM93.86 300.56 29 354.5a238 238 0 0 1-21.29-53.94zM179.43 351.28v121c-1.52-.39-3-.8-4.55-1.23a239.12 239.12 0 0 1-86.09-44.68zM179.43 7.71v119.1L90.14 52.53a239.16 239.16 0 0 1 89.29-44.82zM391.23 53.65l-90.66 75.15V7.72l1.37.35a239 239 0 0 1 89.29 45.58zM472.29 179.42h-86L451 125.58a238.17 238.17 0 0 1 21.29 53.84zM392 425.78a239.25 239.25 0 0 1-91.38 46.51V349.76zM472.29 300.56a238.61 238.61 0 0 1-20.65 52.71l-63.35-52.71z" fill="#012169" opacity="1" data-original="#012169"></path></g><path fill="#C8102E" d="M480 237.49v4.79a242.25 242.25 0 0 1-2.63 33.43H275.71v201.65a242.45 242.45 0 0 1-33.22 2.64h-5a240.78 240.78 0 0 1-33.23-2.65V275.71H2.64A243 243 0 0 1 0 242.45v-4.73a242.4 242.4 0 0 1 2.63-33.44h201.66V2.64A243.84 243.84 0 0 1 235.91 0h7.74a240.26 240.26 0 0 1 30.19 2.34l1.87.28v201.66h201.65a242.31 242.31 0 0 1 2.64 33.21z" opacity="1" data-original="#c8102e"></path></g></g></g></svg>