<svg xmlns="http://www.w3.org/2000/svg" version="1.1" xmlns:xlink="http://www.w3.org/1999/xlink" width="512" height="512" x="0" y="0" viewBox="0 0 100 100" style="enable-background:new 0 0 512 512" xml:space="preserve" class="hovered-paths"><g><path fill="#61A8FF" d="m97.299 76.08-2.164 9.404-.507 2.196a12.545 12.545 0 0 1-1.657 3.958c-2.3 3.652-6.396 5.974-10.903 5.858-10.397-.285-21.459-3.325-32.066-8.972-7.748-4.116-15.252-9.616-22.081-16.445C11.76 55.92 2.99 35.918 2.504 17.932c-.158-5.974 3.99-11.23 9.816-12.56l2.196-.507 3.367-.77 6.037-1.393c3.916-.898 7.832 1.277 9.257 5.034 1.974 5.246 4.613 10.555 7.874 15.801 2.08 3.357 1.393 7.737-1.636 10.28l-10.027 8.445c3.662 5.33 7.98 10.523 12.909 15.441a111.083 111.083 0 0 0 7.705 7.04 103.68 103.68 0 0 0 7.737 5.87l8.444-10.028c2.543-3.03 6.924-3.715 10.28-1.636 5.246 3.261 10.555 5.9 15.8 7.874 3.758 1.425 5.933 5.34 5.036 9.257z" opacity="1" data-original="#61a8ff" class="hovered-path"></path><path fill="#FFFFFF" d="m97.299 76.08-2.164 9.404-.507 2.196a12.545 12.545 0 0 1-1.657 3.958c-67.415-11.41-75.067-64.27-75.088-87.543l6.037-1.393c3.916-.898 7.832 1.277 9.257 5.034 1.974 5.246 4.613 10.555 7.874 15.801 2.08 3.357 1.393 7.737-1.636 10.28l-10.027 8.445c3.662 5.33 7.98 10.523 12.909 15.441a111.083 111.083 0 0 0 7.705 7.04 103.68 103.68 0 0 0 7.737 5.87l8.444-10.028c2.543-3.03 6.924-3.715 10.28-1.636 5.246 3.261 10.555 5.9 15.8 7.874 3.758 1.425 5.933 5.34 5.036 9.257z" opacity=".25"></path></g></svg>